<svg xmlns="http://www.w3.org/2000/svg" xmlns:xlink="http://www.w3.org/1999/xlink" preserveAspectRatio="xMidYMid" width="40" height="40" viewBox="0 0 40 40">
  <defs>
    <style>
      .cls-1 {
        fill: #1072a3;
      }

      .cls-2 {
        fill: #e6e6e6;
        fill-rule: evenodd;
      }
    </style>
  </defs>
  <g>
    <rect width="40" height="40" class="cls-1"/>
    <path d="M27.006,17.624 L27.006,30.000 L9.992,30.000 L9.992,17.624 L22.753,17.624 L22.753,13.499 C22.753,12.912 22.643,12.368 22.425,11.867 C22.208,11.365 21.909,10.931 21.529,10.561 C21.148,10.193 20.700,9.902 20.183,9.692 C19.666,9.480 19.105,9.374 18.499,9.374 C17.893,9.374 17.333,9.480 16.815,9.692 C16.298,9.902 15.850,10.193 15.469,10.561 C15.089,10.931 14.790,11.365 14.573,11.867 C14.355,12.368 14.246,12.912 14.246,13.499 L12.828,13.499 C12.828,12.719 12.972,11.994 13.260,11.325 C13.548,10.654 13.947,10.073 14.456,9.579 C14.966,9.085 15.566,8.698 16.257,8.418 C16.947,8.139 17.694,7.999 18.499,7.999 C19.304,7.999 20.052,8.139 20.742,8.418 C21.433,8.698 22.033,9.085 22.542,9.579 C23.052,10.073 23.450,10.654 23.738,11.325 C24.026,11.994 24.170,12.719 24.170,13.499 L24.170,17.624 L27.006,17.624 ZM25.588,19.000 L11.410,19.000 L11.410,28.625 L25.588,28.625 L25.588,19.000 Z" class="cls-2"/>
  </g>
</svg>
