<svg xmlns="http://www.w3.org/2000/svg" xmlns:xlink="http://www.w3.org/1999/xlink" preserveAspectRatio="xMidYMid" width="40" height="40" viewBox="0 0 40 40">
  <defs>
    <style>
      .cls-1 {
        fill: #3e3e3e;
      }

      .cls-2 {
        fill: #e6e6e6;
        fill-rule: evenodd;
      }
    </style>
  </defs>
  <g>
    <rect width="40" height="40" class="cls-1"/>
    <path d="M24.170,17.624 L24.170,13.499 C24.170,12.718 24.026,11.994 23.738,11.325 C23.450,10.654 23.052,10.073 22.542,9.579 C22.033,9.085 21.433,8.697 20.742,8.418 C20.052,8.139 19.304,7.999 18.499,7.999 C17.694,7.999 16.947,8.139 16.257,8.418 C15.566,8.697 14.966,9.085 14.456,9.579 C13.947,10.073 13.548,10.654 13.260,11.325 C13.036,11.846 12.901,12.402 12.852,12.992 C12.852,12.992 12.828,13.333 12.828,13.499 L12.851,13.499 L12.851,17.624 L9.992,17.624 L9.992,29.999 L27.006,29.999 L27.006,17.624 L24.170,17.624 ZM14.269,13.261 C14.295,12.767 14.385,12.298 14.573,11.867 C14.790,11.365 15.089,10.931 15.469,10.561 C15.850,10.193 16.298,9.902 16.815,9.692 C17.333,9.480 17.893,9.374 18.499,9.374 C19.105,9.374 19.666,9.480 20.183,9.692 C20.700,9.902 21.148,10.193 21.529,10.561 C21.909,10.931 22.208,11.365 22.425,11.867 C22.643,12.368 22.753,12.912 22.753,13.499 L22.753,17.624 L14.269,17.624 L14.269,13.261 ZM25.588,28.625 L11.410,28.625 L11.410,19.000 L25.588,19.000 L25.588,28.625 Z" class="cls-2"/>
  </g>
</svg>
