<?xml version="1.0" encoding="utf-8"?>
<!-- Generator: Adobe Illustrator 19.1.0, SVG Export Plug-In . SVG Version: 6.00 Build 0)  -->
<svg version="1.1" xmlns="http://www.w3.org/2000/svg" xmlns:xlink="http://www.w3.org/1999/xlink" x="0px" y="0px"
	 viewBox="0 0 100 100" style="enable-background:new 0 0 100 100;" xml:space="preserve">
<style type="text/css">
	.st0{fill:#1072A3;}
	.st1{fill:#FFFFFF;}
	.st2{display:none;}
	.st3{display:inline;fill:#1072A3;}
	.st4{display:inline;}
</style>
<g id="Twitter">
	<circle class="st0" cx="50" cy="50" r="49.2"/>
	<path class="st1" d="M69.8,39.9c0,0.4,0,0.9,0,1.3c0,13.5-10.3,29-29,29c-5.8,0-11.1-1.7-15.6-4.6c0.8,0.1,1.6,0.1,2.4,0.1
		c4.8,0,9.2-1.6,12.7-4.4c-4.5-0.1-8.2-3-9.5-7.1c0.6,0.1,1.3,0.2,1.9,0.2c0.9,0,1.8-0.1,2.7-0.4c-4.7-0.9-8.2-5.1-8.2-10
		c0,0,0-0.1,0-0.1c1.4,0.8,2.9,1.2,4.6,1.3c-2.7-1.8-4.5-5-4.5-8.5c0-1.9,0.5-3.6,1.4-5.1c5,6.2,12.5,10.2,21,10.7
		c-0.2-0.7-0.3-1.5-0.3-2.3c0-5.6,4.6-10.2,10.2-10.2c2.9,0,5.6,1.2,7.4,3.2c2.3-0.5,4.5-1.3,6.5-2.5c-0.8,2.4-2.4,4.4-4.5,5.6
		c2.1-0.2,4-0.8,5.9-1.6C73.5,36.6,71.8,38.4,69.8,39.9z"/>
</g>
<g id="Facebook" class="st2">
	<circle class="st3" cx="50" cy="50" r="49.2"/>
	<g class="st4">
		<path class="st1" d="M65,19.9l-7.8,0c-8.8,0-14.4,5.8-14.4,14.8v6.8H35c-0.7,0-1.2,0.5-1.2,1.2v9.9c0,0.7,0.5,1.2,1.2,1.2h7.8v25
			c0,0.7,0.5,1.2,1.2,1.2h10.2c0.7,0,1.2-0.5,1.2-1.2v-25h9.2c0.7,0,1.2-0.5,1.2-1.2l0-9.9c0-0.3-0.1-0.6-0.4-0.9
			c-0.2-0.2-0.5-0.4-0.9-0.4h-9.2v-5.8c0-2.8,0.7-4.2,4.3-4.2l5.3,0c0.7,0,1.2-0.5,1.2-1.2v-9.2C66.3,20.5,65.7,19.9,65,19.9z"/>
	</g>
</g>
</svg>
