<svg xmlns="http://www.w3.org/2000/svg" xmlns:xlink="http://www.w3.org/1999/xlink" preserveAspectRatio="xMidYMid" width="28" height="23" viewBox="0 0 28 23">
  <defs>
    <style>
      .cls-1 {
        fill: #98d0f1;
        fill-rule: evenodd;
      }
    </style>
  </defs>
  <path d="M25.137,5.734 C25.137,5.981 25.137,6.227 25.137,6.474 C25.137,14.181 19.355,22.999 8.825,22.999 C5.538,22.999 2.556,22.074 -0.000,20.409 C0.426,20.471 0.913,20.471 1.399,20.471 C4.078,20.471 6.573,19.546 8.521,18.005 C6.025,17.943 3.895,16.278 3.165,13.935 C3.469,14.058 3.834,14.058 4.199,14.058 C4.747,14.058 5.234,13.997 5.721,13.873 C3.104,13.318 1.156,10.975 1.156,8.138 L1.156,8.077 C1.886,8.509 2.799,8.755 3.713,8.817 C2.191,7.769 1.156,5.981 1.156,3.946 C1.156,2.897 1.460,1.911 1.947,1.048 C4.808,4.562 9.008,6.905 13.816,7.091 C13.695,6.720 13.634,6.227 13.634,5.795 C13.634,2.589 16.190,-0.001 19.416,-0.001 C21.059,-0.001 22.520,0.678 23.555,1.788 C24.894,1.541 26.111,1.048 27.207,0.431 C26.781,1.788 25.868,2.897 24.711,3.637 C25.868,3.452 26.963,3.144 27.998,2.713 C27.207,3.884 26.233,4.871 25.137,5.734 Z" class="cls-1"/>
</svg>
